<?xml version="1.0" encoding="UTF-8"?>
<svg xmlns="http://www.w3.org/2000/svg" xmlns:xlink="http://www.w3.org/1999/xlink" width="2400" height="1680" viewBox="0 0 2400 1680">
<rect x="-240" y="-168" width="2880" height="2016" fill="rgb(0%, 0%, 0%)" fill-opacity="1"/>
<path fill-rule="evenodd" fill="rgb(99.609375%, 99.609375%, 99.609375%)" fill-opacity="1" d="M 1042.859375 951.367188 L 1042.910156 951.558594 L 1086.488281 951.433594 L 1086.488281 951.140625 L 1184.171875 951.140625 L 1184.171875 951.246094 L 1243.578125 951.03125 C 1260.46875 950.964844 1276.289062 957.496094 1288.238281 969.398438 C 1303.28125 984.394531 1306.75 1004.960938 1306.75 1025.882812 C 1306.75 1033.023438 1300.941406 1038.835938 1293.800781 1038.835938 C 1277.359375 1038.324219 1274.589844 1044.847656 1280.140625 1057.707031 L 1290.691406 1080.890625 C 1299.910156 1101.152344 1303.78125 1101.292969 1308.539062 1101.644531 L 1340.789062 1101.644531 C 1345.898438 1101.644531 1350.039062 1105.785156 1350.039062 1110.894531 C 1350.039062 1116.003906 1345.898438 1120.144531 1340.789062 1120.144531 L 771.511719 1120.144531 C 766.402344 1120.144531 762.257812 1116.003906 762.257812 1110.894531 C 762.257812 1105.785156 766.402344 1101.644531 771.511719 1101.644531 L 838.554688 1101.644531 C 843.453125 1101.644531 849.714844 1101.828125 859.242188 1080.890625 L 879.832031 1035.121094 C 886.625 1019.019531 881.035156 1010.371094 869.257812 996.910156 L 767.378906 894.324219 C 760.667969 887.675781 763.589844 875.792969 772.472656 872.914062 L 800.789062 863.476562 C 825.691406 855.175781 853.648438 861.925781 872.023438 880.671875 L 937.226562 947.203125 C 940.105469 950.144531 944.121094 951.828125 948.234375 951.828125 L 948.277344 951.832031 L 1023.769531 951.613281 L 1023.710938 951.367188 Z M 1130.101562 969.789062 C 1129.898438 969.804688 1129.699219 969.8125 1129.5 969.8125 L 948.328125 970.335938 L 948.238281 970.335938 C 939.179688 970.335938 930.351562 966.628906 924.007812 960.15625 L 858.808594 893.625 C 845.351562 879.894531 824.878906 874.949219 806.640625 881.03125 C 797.65625 885.09375 791.761719 893.0625 806.59375 907.558594 L 910.453125 1012.132812 C 915.621094 1017.34375 922.800781 1020.328125 930.140625 1020.328125 L 1262.019531 1020.328125 C 1283.351562 1020.328125 1291.53125 1014.390625 1284.128906 995.46875 C 1282 990.742188 1279.039062 986.359375 1275.171875 982.503906 C 1266.78125 974.136719 1255.640625 969.53125 1243.789062 969.53125 L 1243.640625 969.53125 L 1184.171875 969.75 L 1184.171875 969.789062 Z M 876.082031 1088.550781 C 873.96875 1093.199219 876.027344 1098.699219 880.6875 1100.816406 C 881.886719 1101.363281 883.164062 1101.644531 884.484375 1101.644531 C 888.109375 1101.644531 891.425781 1099.511719 892.929688 1096.222656 L 915.097656 1047.507812 C 921.601562 1033.21875 905.804688 1023.226562 897.003906 1042.570312 Z M 1265.429688 1101.644531 C 1266.761719 1101.644531 1268.039062 1101.363281 1269.261719 1100.808594 C 1273.898438 1098.695312 1275.960938 1093.199219 1273.851562 1088.550781 L 1255.769531 1048.824219 C 1249.820312 1035.75 1227 1030.296875 1235.601562 1049.199219 L 1257 1096.222656 C 1258.5 1099.515625 1261.808594 1101.644531 1265.429688 1101.644531 Z M 1083.121094 1101.644531 L 1219.480469 1101.644531 C 1232.019531 1101.324219 1237.449219 1097.488281 1233.160156 1088.5 L 1217.21875 1053.464844 C 1211.929688 1043.117188 1204.71875 1039.78125 1192.671875 1038.832031 L 1066.289062 1038.832031 L 1066.339844 1039.023438 L 1047.191406 1039.023438 L 1047.140625 1038.832031 L 968.640625 1038.832031 C 950.417969 1039.710938 937.230469 1043.125 931.289062 1056.589844 L 919.542969 1082.402344 C 913.410156 1093.574219 918.007812 1101.582031 933.789062 1101.644531 L 1063.960938 1101.644531 L 1063.929688 1101.5 L 1083.078125 1101.5 L 1083.121094 1101.644531 "/>
<path fill-rule="evenodd" fill="rgb(99.609375%, 99.609375%, 99.609375%)" fill-opacity="1" d="M 919.089844 644.289062 C 931.925781 665.648438 914.835938 671.070312 908.835938 672.269531 L 732.484375 714.195312 C 718.085938 717.738281 711.320312 729.957031 714.605469 743.742188 L 800.308594 1103.175781 C 801.503906 1108.183594 798.410156 1113.214844 793.398438 1114.410156 C 788.390625 1115.601562 783.359375 1112.511719 782.167969 1107.5 L 696.273438 747.277344 C 692.910156 733.164062 688.085938 725.554688 672.644531 728.582031 L 490.882812 771.921875 C 484.988281 773.566406 467.289062 776.441406 469.109375 751.585938 C 476.796875 646.570312 543.910156 573.710938 626.476562 543.480469 C 644.957031 536.28125 643.46875 526.320312 641.554688 517.78125 L 638.988281 507.011719 C 637.792969 502 640.886719 496.96875 645.894531 495.78125 C 650.90625 494.578125 655.933594 497.679688 657.128906 502.691406 L 659.886719 514.25 C 661.832031 522.410156 662.804688 531.921875 685.363281 529.511719 C 772.507812 519.46875 864.96875 554.261719 919.089844 644.289062 Z M 695.675781 704.554688 L 736.632812 694.875 C 764.285156 688.339844 755.59375 674.039062 752.40625 666.460938 C 743.953125 645.960938 733.804688 626.191406 722.066406 607.421875 C 713.042969 592.980469 703.03125 579.089844 692.179688 565.890625 C 681.246094 552.601562 668.96875 547.339844 658.761719 549.730469 C 648.570312 552.199219 639.984375 562.429688 636.226562 579.230469 C 632.496094 595.910156 629.832031 612.820312 628.292969 629.78125 C 626.289062 651.828125 626.152344 674.050781 627.859375 696.15625 C 628.4375 704.363281 627.132812 721.042969 654.757812 714.398438 Z M 586.984375 730.699219 L 511.957031 748.746094 C 485.292969 755.160156 488.835938 737.695312 490.28125 730.90625 C 501.5625 666.25 541.1875 609.621094 596.855469 576.890625 C 602.683594 572.980469 619.882812 563.890625 614.84375 591.578125 C 612.640625 603.691406 610.976562 615.890625 609.867188 628.109375 C 607.671875 652.28125 607.613281 676.648438 609.679688 700.878906 C 609.230469 708.175781 613.636719 724.277344 586.984375 730.699219 Z M 804.46875 678.839844 L 879.566406 661.089844 C 906.257812 654.78125 895.21875 640.800781 890.863281 635.390625 C 851.621094 582.789062 790.703125 550.121094 726.257812 546.039062 C 719.296875 545.179688 699.84375 544.828125 716.832031 567.261719 C 724.261719 577.070312 731.253906 587.210938 737.757812 597.609375 C 750.628906 618.199219 761.671875 639.921875 770.761719 662.46875 C 774.453125 668.78125 777.789062 685.136719 804.46875 678.839844 "/>
<path fill-rule="nonzero" fill="rgb(99.609375%, 99.609375%, 99.609375%)" fill-opacity="1" d="M 1349.601562 467.910156 C 1349.589844 463.140625 1346.359375 455.820312 1341.589844 455.828125 C 1336.820312 455.839844 1332.320312 463.171875 1332.328125 467.941406 L 1332.371094 593.859375 C 1332.378906 598.628906 1336.269531 607.460938 1341.039062 607.449219 C 1345.808594 607.441406 1349.648438 598.601562 1349.640625 593.828125 L 1349.601562 467.910156 "/>
<path fill-rule="nonzero" fill="rgb(99.609375%, 99.609375%, 99.609375%)" fill-opacity="1" d="M 1497.289062 553.359375 C 1498.511719 548.75 1497.28125 540.851562 1492.671875 539.621094 C 1488.058594 538.398438 1481.820312 544.308594 1480.601562 548.921875 L 1465.03125 607.179688 C 1463.800781 611.78125 1465.269531 621.308594 1469.878906 622.539062 C 1474.488281 623.761719 1480.488281 616.21875 1481.71875 611.609375 L 1497.289062 553.359375 "/>
<path fill-rule="nonzero" fill="rgb(99.609375%, 99.609375%, 99.609375%)" fill-opacity="1" d="M 1657.828125 568.128906 C 1660.210938 564 1661.070312 556.050781 1656.929688 553.671875 C 1652.800781 551.289062 1645.238281 555.390625 1642.859375 559.53125 L 1589.71875 654.371094 C 1587.339844 658.5 1586.300781 668.078125 1590.429688 670.460938 C 1594.570312 672.839844 1602.320312 667.101562 1604.691406 662.96875 L 1657.828125 568.128906 "/>
<path fill-rule="nonzero" fill="rgb(99.609375%, 99.609375%, 99.609375%)" fill-opacity="1" d="M 1752.789062 701.738281 C 1756.160156 698.363281 1759.039062 690.902344 1755.660156 687.539062 C 1752.289062 684.175781 1743.921875 686.175781 1740.558594 689.554688 L 1697.949219 732.222656 C 1694.578125 735.597656 1691.089844 744.585938 1694.46875 747.949219 C 1697.851562 751.316406 1706.820312 747.785156 1710.179688 744.40625 L 1752.789062 701.738281 "/>
<path fill-rule="nonzero" fill="rgb(99.609375%, 99.609375%, 99.609375%)" fill-opacity="1" d="M 1900.769531 785.648438 C 1904.890625 783.257812 1909.609375 776.800781 1907.21875 772.675781 C 1904.820312 768.550781 1896.230469 768.316406 1892.101562 770.710938 L 1782.339844 835.433594 C 1778.210938 837.828125 1772.511719 845.601562 1774.910156 849.726562 C 1777.300781 853.851562 1786.878906 852.765625 1791 850.371094 L 1900.769531 785.648438 "/>
<path fill-rule="nonzero" fill="rgb(99.609375%, 99.609375%, 99.609375%)" fill-opacity="1" d="M 1899.878906 957.996094 C 1904.480469 956.753906 1910.710938 951.738281 1909.460938 947.136719 C 1908.21875 942.53125 1899.980469 940.085938 1895.371094 941.328125 L 1837.140625 956.972656 C 1832.539062 958.214844 1825.019531 964.253906 1826.261719 968.855469 C 1827.511719 973.460938 1837.039062 974.886719 1841.640625 973.644531 L 1899.878906 957.996094 "/>
<path fill-rule="nonzero" fill="rgb(99.609375%, 99.609375%, 99.609375%)" fill-opacity="1" d="M 1918.949219 1105.78125 C 1923.71875 1105.769531 1931.03125 1102.539062 1931.019531 1097.769531 C 1931.011719 1093 1923.679688 1088.503906 1918.910156 1088.511719 L 1858.609375 1088.554688 C 1853.851562 1088.5625 1845.019531 1092.445312 1845.03125 1097.214844 C 1845.039062 1101.984375 1853.878906 1105.832031 1858.648438 1105.820312 L 1918.949219 1105.78125 "/>
<path fill-rule="nonzero" fill="rgb(99.609375%, 99.609375%, 99.609375%)" fill-opacity="1" d="M 777.351562 1102.878906 C 772.582031 1102.886719 765.269531 1106.121094 765.28125 1110.890625 C 765.289062 1115.65625 772.617188 1120.15625 777.386719 1120.144531 L 837.6875 1120.105469 C 842.453125 1120.097656 851.277344 1116.210938 851.269531 1111.441406 C 851.257812 1106.675781 842.417969 1102.828125 837.652344 1102.835938 L 777.351562 1102.878906 "/>
<path fill-rule="nonzero" fill="rgb(99.609375%, 99.609375%, 99.609375%)" fill-opacity="1" d="M 945.5625 699.6875 C 942.183594 696.320312 934.726562 693.4375 931.359375 696.816406 C 927.996094 700.195312 929.996094 708.558594 933.375 711.921875 L 976.042969 754.53125 C 979.421875 757.898438 988.40625 761.390625 991.769531 758.011719 C 995.136719 754.632812 991.605469 745.660156 988.226562 742.296875 L 945.5625 699.6875 "/>
<path fill-rule="nonzero" fill="rgb(99.609375%, 99.609375%, 99.609375%)" fill-opacity="1" d="M 1049.671875 584.429688 C 1047.269531 580.308594 1040.820312 575.589844 1036.691406 577.980469 C 1032.570312 580.378906 1032.328125 588.96875 1034.730469 593.101562 L 1079.261719 670.140625 C 1081.648438 674.269531 1089.421875 679.96875 1093.550781 677.570312 C 1097.671875 675.179688 1096.589844 665.601562 1094.191406 661.480469 L 1049.671875 584.429688 "/>
<path fill-rule="nonzero" fill="rgb(99.609375%, 99.609375%, 99.609375%)" fill-opacity="1" d="M 1201.820312 552.601562 C 1200.578125 548 1195.558594 541.769531 1190.960938 543.019531 C 1186.351562 544.261719 1183.898438 552.5 1185.148438 557.109375 L 1200.789062 615.339844 C 1202.039062 619.949219 1208.070312 627.460938 1212.679688 626.21875 C 1217.28125 624.96875 1218.710938 615.441406 1217.46875 610.839844 L 1201.820312 552.601562 "/>
<path fill-rule="nonzero" fill="rgb(99.609375%, 99.609375%, 99.609375%)" fill-opacity="1" d="M 1655.679688 784.03125 C 1575.890625 707.398438 1467.519531 660.300781 1348.148438 660.300781 C 1274.710938 660.300781 1205.429688 678.128906 1144.398438 709.699219 C 1116.570312 724.101562 1131.628906 735.484375 1156.019531 723.164062 C 1213.769531 694 1279.039062 677.570312 1348.148438 677.570312 C 1461.179688 677.570312 1563.941406 721.503906 1640.289062 793.230469 C 1656.160156 808.140625 1672.570312 800.25 1655.679688 784.03125 "/>
<path fill-rule="nonzero" fill="rgb(99.609375%, 99.609375%, 99.609375%)" fill-opacity="1" d="M 1774.910156 1104.328125 C 1774.910156 1109.097656 1778.78125 1112.964844 1783.550781 1112.964844 C 1788.320312 1112.964844 1792.179688 1109.097656 1792.179688 1104.328125 C 1792.179688 1044.4375 1780.320312 987.3125 1758.820312 935.179688 C 1751.371094 917.105469 1729.03125 909.25 1740.960938 937.246094 C 1762.808594 988.5625 1774.910156 1045.03125 1774.910156 1104.328125 "/>
<path fill-rule="nonzero" fill="rgb(99.609375%, 99.609375%, 99.609375%)" fill-opacity="1" d="M 1042.890625 787.195312 C 1042.351562 787.128906 1041.660156 787.09375 1040.800781 787.09375 C 1037.320312 787.09375 1034.269531 788.144531 1032.148438 789.847656 C 1030.558594 791.128906 1029.570312 792.757812 1029.570312 794.429688 C 1029.570312 796.105469 1030.558594 797.734375 1032.148438 799.015625 C 1034.269531 800.71875 1037.320312 801.769531 1040.800781 801.769531 L 1065.300781 801.769531 C 1090.199219 801.769531 1089.761719 819.039062 1066.058594 819.039062 L 1040.800781 819.039062 C 1033.308594 819.039062 1026.429688 816.515625 1021.359375 812.4375 C 1015.761719 807.9375 1012.300781 801.578125 1012.300781 794.429688 C 1012.300781 787.28125 1015.761719 780.921875 1021.359375 776.425781 C 1025.761719 772.882812 1031.519531 770.515625 1037.859375 769.953125 C 1038.648438 757.953125 1044.679688 747.207031 1054.03125 739.339844 C 1063.671875 731.230469 1076.859375 726.21875 1091.308594 726.21875 C 1104.378906 726.21875 1116.421875 730.320312 1125.738281 737.105469 C 1132.570312 742.085938 1137.941406 748.503906 1141.21875 755.835938 C 1144.210938 755.105469 1147.308594 754.710938 1150.460938 754.710938 C 1156.351562 754.710938 1161.929688 756.035156 1166.851562 758.371094 C 1168.308594 759.070312 1169.710938 759.855469 1171.050781 760.71875 C 1173.039062 758.449219 1175.320312 756.433594 1177.828125 754.730469 L 1177.851562 754.722656 L 1177.828125 754.699219 C 1183.460938 750.890625 1190.230469 748.667969 1197.519531 748.667969 C 1207.230469 748.667969 1216.03125 752.605469 1222.398438 758.972656 C 1228.769531 765.339844 1232.710938 774.136719 1232.710938 783.855469 C 1232.710938 793.566406 1228.769531 802.367188 1222.398438 808.734375 C 1216.03125 815.101562 1207.230469 819.039062 1197.519531 819.039062 L 1132.21875 819.039062 C 1110.589844 819.039062 1111.71875 801.769531 1130.710938 801.769531 L 1197.519531 801.769531 C 1202.46875 801.769531 1206.949219 799.765625 1210.191406 796.523438 C 1213.429688 793.28125 1215.429688 788.800781 1215.429688 783.855469 C 1215.429688 778.90625 1213.429688 774.425781 1210.191406 771.183594 C 1206.949219 767.941406 1202.46875 765.9375 1197.519531 765.9375 C 1193.789062 765.9375 1190.339844 767.066406 1187.480469 769 L 1187.460938 768.976562 C 1184.640625 770.894531 1182.390625 773.605469 1181.019531 776.800781 C 1180.480469 778.386719 1179.460938 779.828125 1178.019531 780.90625 C 1174.199219 783.757812 1168.789062 782.972656 1165.949219 779.152344 C 1164.339844 776.996094 1162.121094 775.203125 1159.488281 773.953125 C 1156.839844 772.695312 1153.769531 771.980469 1150.460938 771.980469 C 1148.488281 771.980469 1146.648438 772.21875 1144.96875 772.660156 C 1143.328125 773.09375 1141.78125 773.714844 1140.378906 774.496094 C 1139.441406 775.09375 1138.371094 775.515625 1137.199219 775.714844 C 1132.511719 776.515625 1128.050781 773.359375 1127.25 768.664062 C 1126.070312 761.71875 1121.800781 755.507812 1115.621094 751.003906 C 1109.191406 746.320312 1100.699219 743.488281 1091.308594 743.488281 C 1080.96875 743.488281 1071.710938 746.929688 1065.089844 752.492188 C 1058.890625 757.714844 1055.050781 764.839844 1055.050781 772.628906 C 1055.050781 773.601562 1055.078125 774.421875 1055.148438 775.097656 C 1055.21875 775.769531 1055.320312 776.445312 1055.460938 777.128906 C 1055.820312 778.519531 1055.828125 780.019531 1055.441406 781.507812 C 1054.210938 786.105469 1049.480469 788.839844 1044.878906 787.609375 C 1044.148438 787.414062 1043.480469 787.273438 1042.890625 787.195312 "/>
<path fill-rule="nonzero" fill="rgb(99.609375%, 99.609375%, 99.609375%)" fill-opacity="1" d="M 1725.960938 875.847656 C 1726.488281 875.777344 1727.179688 875.742188 1728.050781 875.742188 C 1731.53125 875.742188 1734.578125 876.796875 1736.691406 878.496094 C 1738.289062 879.777344 1739.269531 881.40625 1739.269531 883.082031 C 1739.269531 884.753906 1738.289062 886.382812 1736.691406 887.664062 C 1734.578125 889.367188 1731.53125 890.421875 1728.050781 890.421875 L 1703.539062 890.421875 C 1678.648438 890.421875 1679.089844 907.6875 1702.789062 907.6875 L 1728.050781 907.6875 C 1735.539062 907.6875 1742.421875 905.164062 1747.488281 901.089844 C 1753.078125 896.589844 1756.539062 890.230469 1756.539062 883.082031 C 1756.539062 875.929688 1753.078125 869.574219 1747.488281 865.074219 C 1743.089844 861.535156 1737.320312 859.164062 1730.980469 858.601562 C 1730.199219 846.601562 1724.171875 835.855469 1714.820312 827.988281 C 1705.179688 819.882812 1691.988281 814.867188 1677.53125 814.867188 C 1664.460938 814.867188 1652.421875 818.972656 1643.109375 825.753906 C 1636.269531 830.734375 1630.898438 837.152344 1627.621094 844.484375 C 1624.628906 843.753906 1621.53125 843.359375 1618.390625 843.359375 C 1612.5 843.359375 1606.910156 844.6875 1602 847.023438 C 1600.53125 847.71875 1599.128906 848.503906 1597.800781 849.367188 C 1595.808594 847.097656 1593.53125 845.082031 1591.011719 843.382812 L 1591 843.371094 L 1591.011719 843.347656 C 1585.390625 839.539062 1578.609375 837.316406 1571.328125 837.316406 C 1561.609375 837.316406 1552.808594 841.253906 1546.449219 847.621094 C 1540.078125 853.992188 1536.140625 862.785156 1536.140625 872.503906 C 1536.140625 882.21875 1540.078125 891.015625 1546.449219 897.382812 C 1552.808594 903.75 1561.609375 907.6875 1571.328125 907.6875 L 1636.628906 907.6875 C 1658.25 907.6875 1657.121094 890.421875 1638.140625 890.421875 L 1571.328125 890.421875 C 1566.378906 890.421875 1561.898438 888.414062 1558.660156 885.171875 C 1555.421875 881.929688 1553.410156 877.453125 1553.410156 872.503906 C 1553.410156 867.554688 1555.421875 863.074219 1558.660156 859.832031 C 1561.898438 856.59375 1566.378906 854.585938 1571.328125 854.585938 C 1575.058594 854.585938 1578.511719 855.714844 1581.371094 857.648438 L 1581.378906 857.628906 C 1584.210938 859.542969 1586.460938 862.253906 1587.828125 865.449219 C 1588.371094 867.035156 1589.378906 868.480469 1590.828125 869.558594 C 1594.640625 872.40625 1600.050781 871.621094 1602.898438 867.804688 C 1604.511719 865.644531 1606.730469 863.851562 1609.351562 862.605469 C 1612 861.347656 1615.078125 860.632812 1618.390625 860.632812 C 1620.351562 860.632812 1622.191406 860.867188 1623.878906 861.3125 C 1625.519531 861.742188 1627.058594 862.363281 1628.46875 863.144531 C 1629.410156 863.742188 1630.480469 864.164062 1631.640625 864.363281 C 1636.339844 865.164062 1640.789062 862.011719 1641.589844 857.316406 C 1642.78125 850.367188 1647.039062 844.15625 1653.230469 839.652344 C 1659.660156 834.96875 1668.148438 832.136719 1677.53125 832.136719 C 1687.878906 832.136719 1697.140625 835.578125 1703.75 841.144531 C 1709.960938 846.367188 1713.800781 853.492188 1713.800781 861.277344 C 1713.800781 862.25 1713.761719 863.070312 1713.691406 863.746094 C 1713.621094 864.417969 1713.519531 865.09375 1713.390625 865.777344 C 1713.03125 867.167969 1713.011719 868.667969 1713.410156 870.15625 C 1714.640625 874.757812 1719.371094 877.488281 1723.96875 876.261719 C 1724.699219 876.066406 1725.371094 875.925781 1725.960938 875.847656 "/>
<path fill-rule="nonzero" fill="rgb(99.609375%, 99.609375%, 99.609375%)" fill-opacity="1" d="M 1524.578125 835.578125 C 1529.351562 835.578125 1536.671875 832.359375 1536.671875 827.59375 C 1536.671875 822.824219 1529.351562 818.3125 1524.578125 818.3125 L 1519.398438 818.3125 C 1514.628906 818.3125 1505.800781 822.175781 1505.800781 826.945312 C 1505.800781 831.714844 1514.628906 835.578125 1519.398438 835.578125 L 1524.578125 835.578125 "/>
<path fill-rule="nonzero" fill="rgb(99.609375%, 99.609375%, 99.609375%)" fill-opacity="1" d="M 1324.261719 787.226562 C 1329.03125 787.226562 1336.351562 784.007812 1336.351562 779.238281 C 1336.351562 774.46875 1329.03125 769.957031 1324.261719 769.957031 L 1305.550781 769.957031 C 1300.78125 769.957031 1291.949219 773.820312 1291.949219 778.589844 C 1291.949219 783.359375 1300.78125 787.226562 1305.550781 787.226562 L 1324.261719 787.226562 "/>
<path fill-rule="nonzero" fill="rgb(99.609375%, 99.609375%, 99.609375%)" fill-opacity="1" d="M 1327.710938 737.722656 C 1332.480469 737.722656 1339.800781 734.503906 1339.800781 729.734375 C 1339.800781 724.964844 1332.480469 720.453125 1327.710938 720.453125 L 1309 720.453125 C 1304.238281 720.453125 1295.410156 724.316406 1295.410156 729.085938 C 1295.410156 733.855469 1304.238281 737.722656 1309 737.722656 L 1327.710938 737.722656 "/>
<path fill-rule="nonzero" fill="rgb(99.609375%, 99.609375%, 99.609375%)" fill-opacity="1" d="M 1270.148438 839.609375 C 1274.921875 839.609375 1282.238281 836.390625 1282.238281 831.621094 C 1282.238281 826.851562 1274.921875 822.339844 1270.148438 822.339844 L 1264.96875 822.339844 C 1260.199219 822.339844 1251.371094 826.207031 1251.371094 830.976562 C 1251.371094 835.742188 1260.199219 839.609375 1264.96875 839.609375 L 1270.148438 839.609375 "/>
<path fill-rule="nonzero" fill="rgb(99.609375%, 99.609375%, 99.609375%)" fill-opacity="1" d="M 1088.820312 867.816406 C 1093.589844 867.816406 1100.910156 864.597656 1100.910156 859.828125 C 1100.910156 855.058594 1093.589844 850.546875 1088.820312 850.546875 L 1070.109375 850.546875 C 1065.339844 850.546875 1056.511719 854.410156 1056.511719 859.179688 C 1056.511719 863.949219 1065.339844 867.816406 1070.109375 867.816406 L 1088.820312 867.816406 "/>
<path fill-rule="nonzero" fill="rgb(99.609375%, 99.609375%, 99.609375%)" fill-opacity="1" d="M 1444.140625 749.804688 C 1438.140625 746.332031 1431.191406 744.34375 1423.820312 744.34375 C 1412.589844 744.34375 1402.421875 748.898438 1395.058594 756.257812 C 1385.308594 766.011719 1388.441406 783.144531 1406.558594 767.761719 C 1410.980469 763.347656 1417.078125 760.613281 1423.820312 760.613281 C 1428.289062 760.613281 1432.449219 761.792969 1436.011719 763.847656 C 1439.738281 766.003906 1442.828125 769.085938 1444.96875 772.761719 C 1445.660156 773.984375 1446.679688 775.046875 1447.988281 775.800781 C 1449.230469 776.511719 1450.578125 776.859375 1451.921875 776.875 C 1453.261719 776.859375 1454.609375 776.511719 1455.851562 775.800781 C 1457.160156 775.046875 1458.179688 773.984375 1458.871094 772.761719 C 1461 769.085938 1464.101562 766.003906 1467.828125 763.847656 C 1471.390625 761.792969 1475.550781 760.613281 1480.019531 760.613281 C 1486.761719 760.613281 1492.859375 763.347656 1497.269531 767.761719 C 1515.390625 783.144531 1518.53125 766.011719 1508.78125 756.257812 C 1501.410156 748.898438 1491.25 744.34375 1480.019531 744.34375 C 1472.640625 744.34375 1465.699219 746.332031 1459.691406 749.804688 C 1456.121094 752.1875 1453.78125 753.265625 1451.921875 753.476562 C 1450.058594 753.265625 1447.71875 752.1875 1444.140625 749.804688 "/>
<path fill-rule="nonzero" fill="rgb(99.609375%, 99.609375%, 99.609375%)" fill-opacity="1" d="M 1595.191406 958.589844 C 1595.191406 953.878906 1598.929688 945.441406 1603.628906 944.933594 C 1603.660156 944.9375 1603.699219 944.945312 1603.738281 944.949219 C 1603.769531 944.945312 1603.808594 944.9375 1603.851562 944.933594 C 1608.550781 945.441406 1612.28125 953.878906 1612.28125 958.589844 C 1612.429688 969.578125 1616.890625 976.382812 1623.890625 983.390625 L 1632.679688 992.496094 C 1635.441406 995.265625 1640.078125 1004.65625 1637.289062 1007.449219 C 1634.488281 1010.246094 1625.320312 1005.382812 1622.558594 1002.617188 C 1620.449219 1001.003906 1611.949219 992.449219 1612.28125 1008.324219 L 1612.28125 1014.539062 C 1612.429688 1025.53125 1616.890625 1032.335938 1623.890625 1039.34375 L 1641.710938 1057.050781 C 1644.46875 1059.816406 1649.109375 1069.207031 1646.320312 1072.003906 C 1643.53125 1074.796875 1634.351562 1069.933594 1631.589844 1067.167969 L 1625.101562 1061.230469 C 1616.230469 1052.363281 1612 1055.203125 1612.28125 1064.277344 C 1611.859375 1134.308594 1594.621094 1123.867188 1595.191406 1064.277344 C 1595.46875 1055.203125 1591.238281 1052.363281 1582.378906 1061.230469 L 1575.890625 1067.167969 C 1573.121094 1069.933594 1563.949219 1074.796875 1561.160156 1072.003906 C 1558.359375 1069.207031 1563 1059.816406 1565.769531 1057.050781 L 1583.578125 1039.34375 C 1590.589844 1032.335938 1595.050781 1025.53125 1595.191406 1014.539062 L 1595.191406 1008.324219 C 1595.519531 992.449219 1587.03125 1001.003906 1584.921875 1002.617188 C 1582.148438 1005.382812 1572.980469 1010.246094 1570.191406 1007.449219 C 1567.390625 1004.65625 1572.03125 995.265625 1574.800781 992.496094 L 1583.578125 983.390625 C 1590.589844 976.382812 1595.050781 969.578125 1595.191406 958.589844 "/>
<path fill-rule="nonzero" fill="rgb(99.609375%, 99.609375%, 99.609375%)" fill-opacity="1" d="M 1482.511719 905.578125 C 1482.511719 900.871094 1486.25 892.433594 1490.941406 891.925781 C 1490.980469 891.929688 1491.019531 891.9375 1491.050781 891.941406 C 1491.089844 891.9375 1491.128906 891.929688 1491.160156 891.925781 C 1495.859375 892.433594 1499.601562 900.871094 1499.601562 905.578125 C 1499.738281 916.570312 1504.199219 923.371094 1511.210938 930.382812 L 1519.988281 939.488281 C 1522.761719 942.253906 1527.398438 951.648438 1524.609375 954.441406 C 1521.808594 957.234375 1512.640625 952.371094 1509.871094 949.605469 C 1507.761719 947.996094 1499.269531 939.4375 1499.601562 955.3125 L 1499.601562 961.53125 C 1499.738281 972.523438 1504.199219 979.324219 1511.210938 986.335938 L 1529.019531 1004.039062 C 1531.789062 1006.804688 1536.429688 1016.199219 1533.640625 1018.992188 C 1530.839844 1021.785156 1521.671875 1016.925781 1518.910156 1014.160156 L 1512.421875 1008.222656 C 1503.550781 999.355469 1499.320312 1002.191406 1499.601562 1011.265625 L 1499.601562 1014.378906 C 1499.738281 1025.367188 1504.199219 1032.171875 1511.210938 1039.179688 L 1533.519531 1061.480469 C 1536.289062 1064.246094 1540.929688 1073.640625 1538.140625 1076.433594 C 1535.339844 1079.226562 1526.171875 1074.367188 1523.398438 1071.597656 L 1512.421875 1061.066406 C 1503.550781 1052.199219 1499.320312 1055.039062 1499.601562 1064.113281 C 1499.601562 1070.953125 1495.339844 1112.996094 1491.101562 1112.964844 C 1491.089844 1112.964844 1491.070312 1112.957031 1491.050781 1112.957031 C 1491.039062 1112.957031 1491.019531 1112.964844 1491.011719 1112.964844 C 1486.769531 1112.996094 1482.511719 1070.953125 1482.511719 1064.113281 C 1482.789062 1055.039062 1478.558594 1052.199219 1469.691406 1061.066406 L 1458.699219 1071.597656 C 1455.941406 1074.367188 1446.769531 1079.226562 1443.96875 1076.433594 C 1441.179688 1073.640625 1445.820312 1064.246094 1448.589844 1061.480469 L 1470.898438 1039.179688 C 1477.910156 1032.171875 1482.371094 1025.367188 1482.511719 1014.378906 L 1482.511719 1011.265625 C 1482.789062 1002.191406 1478.558594 999.355469 1469.691406 1008.222656 L 1463.199219 1014.160156 C 1460.441406 1016.925781 1451.269531 1021.785156 1448.46875 1018.992188 C 1445.679688 1016.199219 1450.320312 1006.804688 1453.078125 1004.039062 L 1470.898438 986.335938 C 1477.910156 979.324219 1482.371094 972.523438 1482.511719 961.53125 L 1482.511719 955.3125 C 1482.839844 939.4375 1474.351562 947.996094 1472.230469 949.605469 C 1469.46875 952.371094 1460.300781 957.234375 1457.5 954.441406 C 1454.710938 951.648438 1459.351562 942.253906 1462.109375 939.488281 L 1470.898438 930.382812 C 1477.910156 923.371094 1482.371094 916.570312 1482.511719 905.578125 "/>
<path fill-rule="nonzero" fill="rgb(99.609375%, 99.609375%, 99.609375%)" fill-opacity="1" d="M 1700.101562 958.589844 C 1700.101562 953.878906 1703.839844 945.441406 1708.539062 944.933594 C 1708.578125 944.9375 1708.609375 944.945312 1708.648438 944.949219 C 1708.691406 944.945312 1708.71875 944.9375 1708.761719 944.933594 C 1713.460938 945.441406 1717.199219 953.878906 1717.199219 958.589844 C 1717.339844 969.578125 1721.800781 976.382812 1728.808594 983.390625 L 1737.589844 992.496094 C 1740.359375 995.265625 1744.988281 1004.65625 1742.199219 1007.449219 C 1739.410156 1010.246094 1730.238281 1005.382812 1727.46875 1002.617188 C 1725.359375 1001.003906 1716.871094 992.449219 1717.199219 1008.324219 L 1717.199219 1014.539062 C 1717.339844 1025.53125 1721.800781 1032.335938 1728.808594 1039.34375 L 1746.621094 1057.050781 C 1749.390625 1059.816406 1754.03125 1069.207031 1751.230469 1072.003906 C 1748.441406 1074.796875 1739.269531 1069.933594 1736.5 1067.167969 L 1730.011719 1061.230469 C 1721.140625 1052.363281 1716.910156 1055.203125 1717.199219 1064.277344 C 1716.769531 1134.308594 1699.53125 1123.867188 1700.101562 1064.277344 C 1700.378906 1055.203125 1696.160156 1052.363281 1687.289062 1061.230469 L 1680.800781 1067.167969 C 1678.03125 1069.933594 1668.859375 1074.796875 1666.070312 1072.003906 C 1663.269531 1069.207031 1667.910156 1059.816406 1670.679688 1057.050781 L 1688.488281 1039.34375 C 1695.5 1032.335938 1699.960938 1025.53125 1700.101562 1014.539062 L 1700.101562 1008.324219 C 1700.429688 992.449219 1691.941406 1001.003906 1689.828125 1002.617188 C 1687.058594 1005.382812 1677.890625 1010.246094 1675.101562 1007.449219 C 1672.300781 1004.65625 1676.941406 995.265625 1679.710938 992.496094 L 1688.488281 983.390625 C 1695.5 976.382812 1699.960938 969.578125 1700.101562 958.589844 "/>
<path fill-rule="evenodd" fill="rgb(99.609375%, 99.609375%, 99.609375%)" fill-opacity="1" d="M 1240.25 1145.304688 C 1239.941406 1145.300781 1239.609375 1145.296875 1239.300781 1145.296875 C 1227.070312 1145.296875 1215.171875 1149.382812 1205.53125 1156.894531 C 1198.371094 1162.488281 1189.539062 1165.53125 1180.449219 1165.53125 C 1171.359375 1165.53125 1162.539062 1162.488281 1155.378906 1156.890625 C 1145.378906 1149.371094 1133.191406 1145.304688 1120.679688 1145.304688 C 1108.160156 1145.304688 1095.980469 1149.371094 1085.980469 1156.890625 C 1078.828125 1162.488281 1069.988281 1165.535156 1060.910156 1165.535156 C 1051.828125 1165.535156 1042.988281 1162.488281 1035.839844 1156.890625 C 1025.851562 1149.378906 1013.660156 1145.304688 1001.148438 1145.304688 C 988.640625 1145.304688 976.449219 1149.378906 966.457031 1156.890625 C 959.617188 1162.480469 951.046875 1165.539062 942.207031 1165.539062 C 941.941406 1165.539062 941.664062 1165.535156 941.402344 1165.53125 C 941.140625 1165.535156 940.859375 1165.539062 940.59375 1165.539062 C 931.75 1165.539062 923.175781 1162.480469 916.332031 1156.886719 C 906.695312 1149.378906 894.8125 1145.296875 882.597656 1145.296875 C 882.289062 1145.296875 881.960938 1145.300781 881.660156 1145.300781 C 881.355469 1145.300781 881.023438 1145.296875 880.710938 1145.296875 C 868.492188 1145.296875 856.605469 1149.382812 846.972656 1156.890625 C 840.128906 1162.480469 831.554688 1165.539062 822.714844 1165.539062 C 822.453125 1165.539062 822.175781 1165.535156 821.917969 1165.53125 C 817.175781 1165.53125 813.328125 1169.378906 813.328125 1174.121094 C 813.328125 1178.867188 817.175781 1182.710938 821.917969 1182.710938 C 822.203125 1182.714844 822.519531 1182.71875 822.8125 1182.71875 C 835.058594 1182.71875 846.964844 1178.609375 856.605469 1171.070312 C 863.4375 1165.515625 872 1162.472656 880.8125 1162.472656 C 881.09375 1162.472656 881.386719 1162.480469 881.660156 1162.484375 C 881.933594 1162.480469 882.226562 1162.472656 882.507812 1162.472656 C 891.320312 1162.472656 899.882812 1165.515625 906.71875 1171.074219 C 916.347656 1178.589844 928.226562 1182.679688 940.445312 1182.679688 C 940.761719 1182.679688 941.097656 1182.671875 941.402344 1182.671875 C 941.710938 1182.671875 942.039062 1182.679688 942.355469 1182.679688 C 954.570312 1182.679688 966.460938 1178.585938 976.089844 1171.074219 C 983.238281 1165.484375 992.070312 1162.4375 1001.148438 1162.4375 C 1010.230469 1162.4375 1019.058594 1165.484375 1026.210938 1171.074219 C 1036.210938 1178.585938 1048.398438 1182.664062 1060.910156 1182.664062 C 1073.421875 1182.664062 1085.621094 1178.585938 1095.609375 1171.070312 C 1102.761719 1165.488281 1111.601562 1162.441406 1120.679688 1162.441406 C 1129.761719 1162.441406 1138.589844 1165.488281 1145.75 1171.074219 C 1155.738281 1178.59375 1167.941406 1182.664062 1180.449219 1182.664062 C 1192.96875 1182.664062 1205.160156 1178.59375 1215.160156 1171.078125 C 1222.320312 1165.480469 1231.148438 1162.429688 1240.238281 1162.429688 C 1249.328125 1162.429688 1258.171875 1165.480469 1265.328125 1171.074219 C 1274.96875 1178.582031 1286.871094 1182.671875 1299.101562 1182.671875 C 1299.421875 1182.671875 1299.738281 1182.664062 1300.050781 1182.664062 C 1300.96875 1182.664062 1301.851562 1182.519531 1302.679688 1182.253906 C 1303.550781 1182.550781 1304.488281 1182.710938 1305.460938 1182.710938 C 1305.75 1182.714844 1306.058594 1182.71875 1306.359375 1182.71875 C 1318.601562 1182.71875 1330.511719 1178.609375 1340.148438 1171.070312 C 1346.980469 1165.515625 1355.539062 1162.472656 1364.359375 1162.472656 C 1364.640625 1162.472656 1364.929688 1162.480469 1365.199219 1162.484375 C 1365.480469 1162.480469 1365.769531 1162.472656 1366.050781 1162.472656 C 1374.859375 1162.472656 1383.421875 1165.515625 1390.261719 1171.074219 C 1399.890625 1178.589844 1411.769531 1182.679688 1423.988281 1182.679688 C 1424.300781 1182.679688 1424.640625 1182.671875 1424.949219 1182.671875 C 1425.25 1182.671875 1425.578125 1182.679688 1425.898438 1182.679688 C 1438.121094 1182.679688 1450.011719 1178.585938 1459.628906 1171.074219 C 1466.78125 1165.484375 1475.609375 1162.4375 1484.691406 1162.4375 C 1493.78125 1162.4375 1502.601562 1165.484375 1509.75 1171.074219 C 1519.75 1178.585938 1531.941406 1182.664062 1544.449219 1182.664062 C 1556.960938 1182.664062 1569.160156 1178.585938 1579.148438 1171.070312 C 1586.308594 1165.488281 1595.140625 1162.441406 1604.21875 1162.441406 C 1613.300781 1162.441406 1622.140625 1165.488281 1629.289062 1171.074219 C 1639.289062 1178.59375 1651.480469 1182.664062 1664 1182.664062 C 1676.511719 1182.664062 1688.699219 1178.59375 1698.699219 1171.078125 C 1705.859375 1165.480469 1714.699219 1162.429688 1723.789062 1162.429688 C 1732.878906 1162.429688 1741.710938 1165.480469 1748.871094 1171.074219 C 1758.519531 1178.582031 1770.421875 1182.671875 1782.640625 1182.671875 C 1782.960938 1182.671875 1783.28125 1182.664062 1783.589844 1182.664062 C 1788.339844 1182.660156 1792.179688 1178.8125 1792.179688 1174.070312 C 1792.179688 1169.328125 1788.339844 1165.480469 1783.589844 1165.480469 C 1783.328125 1165.484375 1783.050781 1165.492188 1782.769531 1165.492188 C 1773.929688 1165.492188 1765.351562 1162.429688 1758.5 1156.839844 C 1748.859375 1149.363281 1737 1145.296875 1724.789062 1145.296875 C 1724.46875 1145.296875 1724.109375 1145.300781 1723.789062 1145.300781 L 1723.789062 1145.304688 C 1723.480469 1145.300781 1723.160156 1145.296875 1722.839844 1145.296875 C 1710.609375 1145.296875 1698.710938 1149.382812 1689.070312 1156.894531 C 1681.910156 1162.488281 1673.078125 1165.53125 1664 1165.53125 C 1654.910156 1165.53125 1646.078125 1162.488281 1638.921875 1156.890625 C 1628.929688 1149.371094 1616.738281 1145.304688 1604.21875 1145.304688 C 1591.710938 1145.304688 1579.519531 1149.371094 1569.519531 1156.890625 C 1562.371094 1162.488281 1553.539062 1165.535156 1544.449219 1165.535156 C 1535.371094 1165.535156 1526.53125 1162.488281 1519.378906 1156.890625 C 1509.390625 1149.378906 1497.199219 1145.304688 1484.691406 1145.304688 C 1472.179688 1145.304688 1459.988281 1149.378906 1450 1156.890625 C 1443.160156 1162.480469 1434.589844 1165.539062 1425.75 1165.539062 C 1425.480469 1165.539062 1425.210938 1165.535156 1424.941406 1165.53125 C 1424.679688 1165.535156 1424.398438 1165.539062 1424.140625 1165.539062 C 1415.289062 1165.539062 1406.71875 1162.480469 1399.871094 1156.886719 C 1390.238281 1149.378906 1378.359375 1145.296875 1366.140625 1145.296875 C 1365.828125 1145.296875 1365.5 1145.300781 1365.199219 1145.300781 C 1364.898438 1145.300781 1364.570312 1145.296875 1364.25 1145.296875 C 1352.03125 1145.296875 1340.148438 1149.382812 1330.519531 1156.890625 C 1323.671875 1162.480469 1315.101562 1165.539062 1306.261719 1165.539062 C 1305.988281 1165.539062 1305.71875 1165.535156 1305.460938 1165.53125 C 1304.539062 1165.53125 1303.660156 1165.675781 1302.828125 1165.941406 C 1301.960938 1165.644531 1301.019531 1165.480469 1300.050781 1165.480469 C 1299.78125 1165.484375 1299.5 1165.492188 1299.230469 1165.492188 C 1290.390625 1165.492188 1281.808594 1162.429688 1274.960938 1156.839844 C 1265.320312 1149.363281 1253.449219 1145.296875 1241.25 1145.296875 C 1240.921875 1145.296875 1240.570312 1145.300781 1240.25 1145.300781 L 1240.25 1145.304688 "/>
<path fill-rule="evenodd" fill="rgb(99.609375%, 99.609375%, 99.609375%)" fill-opacity="1" d="M 1240.25 1186.75 C 1239.941406 1186.75 1239.609375 1186.742188 1239.300781 1186.742188 C 1227.070312 1186.742188 1215.171875 1190.828125 1205.53125 1198.339844 C 1198.371094 1203.933594 1189.539062 1206.980469 1180.449219 1206.980469 C 1171.359375 1206.980469 1162.539062 1203.933594 1155.378906 1198.339844 C 1145.378906 1190.820312 1133.191406 1186.75 1120.679688 1186.75 C 1108.160156 1186.75 1095.980469 1190.820312 1085.980469 1198.335938 C 1078.828125 1203.9375 1069.988281 1206.980469 1060.910156 1206.980469 C 1051.828125 1206.980469 1042.988281 1203.9375 1035.839844 1198.339844 C 1025.851562 1190.824219 1013.660156 1186.75 1001.148438 1186.75 C 988.640625 1186.75 976.449219 1190.824219 966.457031 1198.335938 C 959.617188 1203.929688 951.046875 1206.988281 942.207031 1206.988281 C 941.941406 1206.988281 941.664062 1206.984375 941.402344 1206.980469 C 941.140625 1206.984375 940.859375 1206.988281 940.59375 1206.988281 C 931.75 1206.988281 923.175781 1203.929688 916.332031 1198.332031 C 906.695312 1190.824219 894.8125 1186.742188 882.597656 1186.742188 C 882.289062 1186.742188 881.960938 1186.75 881.660156 1186.75 C 881.355469 1186.746094 881.023438 1186.742188 880.710938 1186.742188 C 868.492188 1186.742188 856.605469 1190.828125 846.972656 1198.339844 C 840.128906 1203.925781 831.554688 1206.988281 822.714844 1206.988281 C 822.453125 1206.988281 822.175781 1206.984375 821.917969 1206.976562 C 817.175781 1206.980469 813.328125 1210.828125 813.328125 1215.570312 C 813.328125 1220.3125 817.175781 1224.160156 821.917969 1224.160156 C 822.203125 1224.160156 822.519531 1224.164062 822.8125 1224.164062 C 835.058594 1224.164062 846.964844 1220.054688 856.605469 1212.515625 C 863.4375 1206.960938 872 1203.921875 880.8125 1203.921875 C 881.09375 1203.921875 881.386719 1203.925781 881.660156 1203.929688 C 881.933594 1203.925781 882.226562 1203.921875 882.507812 1203.921875 C 891.320312 1203.921875 899.882812 1206.960938 906.71875 1212.519531 C 916.347656 1220.035156 928.226562 1224.125 940.445312 1224.125 C 940.761719 1224.125 941.097656 1224.117188 941.402344 1224.117188 C 941.710938 1224.117188 942.039062 1224.125 942.355469 1224.125 C 954.570312 1224.125 966.460938 1220.035156 976.089844 1212.523438 C 983.238281 1206.929688 992.070312 1203.882812 1001.148438 1203.882812 C 1010.230469 1203.882812 1019.058594 1206.929688 1026.210938 1212.523438 C 1036.210938 1220.03125 1048.398438 1224.109375 1060.910156 1224.109375 C 1073.421875 1224.109375 1085.621094 1220.03125 1095.609375 1212.515625 C 1102.761719 1206.933594 1111.601562 1203.886719 1120.679688 1203.886719 C 1129.761719 1203.886719 1138.589844 1206.933594 1145.75 1212.519531 C 1155.738281 1220.039062 1167.941406 1224.113281 1180.449219 1224.113281 C 1192.96875 1224.113281 1205.160156 1220.039062 1215.160156 1212.523438 C 1222.320312 1206.925781 1231.148438 1203.878906 1240.238281 1203.878906 C 1249.328125 1203.878906 1258.171875 1206.925781 1265.328125 1212.519531 C 1274.96875 1220.027344 1286.871094 1224.117188 1299.101562 1224.117188 C 1299.421875 1224.117188 1299.738281 1224.109375 1300.050781 1224.109375 C 1300.96875 1224.109375 1301.851562 1223.964844 1302.679688 1223.699219 C 1303.550781 1223.996094 1304.488281 1224.160156 1305.460938 1224.160156 C 1305.75 1224.160156 1306.058594 1224.164062 1306.359375 1224.164062 C 1318.601562 1224.164062 1330.511719 1220.054688 1340.148438 1212.515625 C 1346.980469 1206.960938 1355.539062 1203.921875 1364.359375 1203.921875 C 1364.640625 1203.921875 1364.929688 1203.925781 1365.199219 1203.929688 C 1365.480469 1203.925781 1365.769531 1203.921875 1366.050781 1203.921875 C 1374.859375 1203.921875 1383.421875 1206.960938 1390.261719 1212.519531 C 1399.890625 1220.035156 1411.769531 1224.125 1423.988281 1224.125 C 1424.300781 1224.125 1424.640625 1224.117188 1424.949219 1224.117188 C 1425.25 1224.117188 1425.578125 1224.125 1425.898438 1224.125 C 1438.121094 1224.125 1450.011719 1220.035156 1459.628906 1212.523438 C 1466.78125 1206.929688 1475.609375 1203.882812 1484.691406 1203.882812 C 1493.78125 1203.882812 1502.601562 1206.929688 1509.75 1212.523438 C 1519.75 1220.03125 1531.941406 1224.109375 1544.449219 1224.109375 C 1556.960938 1224.109375 1569.160156 1220.03125 1579.148438 1212.515625 C 1586.308594 1206.933594 1595.140625 1203.886719 1604.21875 1203.886719 C 1613.300781 1203.886719 1622.140625 1206.933594 1629.289062 1212.519531 C 1639.289062 1220.039062 1651.480469 1224.113281 1664 1224.113281 C 1676.511719 1224.113281 1688.699219 1220.039062 1698.699219 1212.523438 C 1705.859375 1206.925781 1714.699219 1203.878906 1723.789062 1203.878906 C 1732.878906 1203.878906 1741.710938 1206.925781 1748.871094 1212.519531 C 1758.519531 1220.027344 1770.421875 1224.117188 1782.640625 1224.117188 C 1782.960938 1224.117188 1783.28125 1224.109375 1783.589844 1224.109375 C 1788.339844 1224.105469 1792.179688 1220.261719 1792.179688 1215.519531 C 1792.179688 1210.773438 1788.339844 1206.929688 1783.589844 1206.929688 C 1783.328125 1206.933594 1783.050781 1206.9375 1782.769531 1206.9375 C 1773.929688 1206.9375 1765.351562 1203.878906 1758.5 1198.285156 C 1748.859375 1190.808594 1737 1186.742188 1724.789062 1186.742188 C 1724.46875 1186.742188 1724.109375 1186.746094 1723.789062 1186.746094 L 1723.789062 1186.75 C 1723.480469 1186.75 1723.160156 1186.742188 1722.839844 1186.742188 C 1710.609375 1186.742188 1698.710938 1190.828125 1689.070312 1198.339844 C 1681.910156 1203.933594 1673.078125 1206.980469 1664 1206.980469 C 1654.910156 1206.980469 1646.078125 1203.933594 1638.921875 1198.339844 C 1628.929688 1190.820312 1616.738281 1186.75 1604.21875 1186.75 C 1591.710938 1186.75 1579.519531 1190.820312 1569.519531 1198.335938 C 1562.371094 1203.9375 1553.539062 1206.980469 1544.449219 1206.980469 C 1535.371094 1206.980469 1526.53125 1203.9375 1519.378906 1198.339844 C 1509.390625 1190.824219 1497.199219 1186.75 1484.691406 1186.75 C 1472.179688 1186.75 1459.988281 1190.824219 1450 1198.335938 C 1443.160156 1203.929688 1434.589844 1206.988281 1425.75 1206.988281 C 1425.480469 1206.988281 1425.210938 1206.984375 1424.941406 1206.980469 C 1424.679688 1206.984375 1424.398438 1206.988281 1424.140625 1206.988281 C 1415.289062 1206.988281 1406.71875 1203.929688 1399.871094 1198.332031 C 1390.238281 1190.824219 1378.359375 1186.742188 1366.140625 1186.742188 C 1365.828125 1186.742188 1365.5 1186.75 1365.199219 1186.75 C 1364.898438 1186.746094 1364.570312 1186.742188 1364.25 1186.742188 C 1352.03125 1186.742188 1340.148438 1190.828125 1330.519531 1198.339844 C 1323.671875 1203.925781 1315.101562 1206.988281 1306.261719 1206.988281 C 1305.988281 1206.988281 1305.71875 1206.984375 1305.460938 1206.976562 C 1304.539062 1206.980469 1303.660156 1207.121094 1302.828125 1207.390625 C 1301.960938 1207.089844 1301.019531 1206.929688 1300.050781 1206.929688 C 1299.78125 1206.933594 1299.5 1206.9375 1299.230469 1206.9375 C 1290.390625 1206.9375 1281.808594 1203.878906 1274.960938 1198.285156 C 1265.320312 1190.808594 1253.449219 1186.742188 1241.25 1186.742188 C 1240.921875 1186.742188 1240.570312 1186.746094 1240.25 1186.746094 L 1240.25 1186.75 "/>
</svg>
